<svg width="175" height="120" viewBox="0 0 175 120" fill="none" xmlns="http://www.w3.org/2000/svg">
<g clip-path="url(#clip0_528_6517)">
<path d="M114.328 30.4071H130.654L125.586 13.6062C124.443 9.81788 120.953 7.22559 116.996 7.22559" stroke="black" stroke-width="0.351901" stroke-linecap="round" stroke-linejoin="round"/>
<path d="M86.3296 43.0516H107.928C112.9 43.0516 116.463 38.2547 115.027 33.4946L109.885 16.4491C108.557 12.0474 111.66 7.61602 116.143 7.25249L116.134 7.22559H91.3333" stroke="black" stroke-width="0.351901" stroke-linecap="round" stroke-linejoin="round"/>
<path d="M86.3296 43.0514H108.048L108.047 43.049C104.462 43.0235 101.308 40.6682 100.271 37.2317L97.4856 27.9984L90.964 6.38059C89.8212 2.59229 86.3315 0 82.3745 0" stroke="black" stroke-width="0.351901" stroke-linecap="round" stroke-linejoin="round"/>
<path d="M82.1228 0.026901L82.1147 0H39.6657C34.8672 0 31.4282 4.62951 32.8141 9.22352L48.3962 59.9106H91.4475L75.8655 9.22352C74.5376 4.82186 77.6401 0.390434 82.1228 0.026901Z" stroke="black" stroke-width="0.351901" stroke-linecap="round" stroke-linejoin="round"/>
<path d="M44.4788 4.53027H64.8891C65.6179 4.53027 66.2087 5.12109 66.2087 5.8499V5.84991C66.2087 6.57872 65.6179 7.16953 64.8891 7.16953H44.4788C43.75 7.16953 43.1592 6.57872 43.1592 5.84991V5.8499C43.1592 5.12109 43.75 4.53027 44.4788 4.53027Z" stroke="black" stroke-width="0.351901" stroke-linecap="round" stroke-linejoin="round"/>
<path d="M33.3784 11.0591H76.4298" stroke="black" stroke-width="0.351901" stroke-linecap="round" stroke-linejoin="round"/>
<path d="M38.0566 16.1431H53.5403" stroke="black" stroke-width="0.351901" stroke-linecap="round" stroke-linejoin="round"/>
<path d="M56.8218 16.1431H61.9762" stroke="black" stroke-width="0.351901" stroke-linecap="round" stroke-linejoin="round"/>
<path d="M64.7896 16.1431H75.0865" stroke="black" stroke-width="0.351901" stroke-linecap="round" stroke-linejoin="round"/>
<path d="M92.4258 11.0405H96.4625" stroke="black" stroke-width="0.351901" stroke-linecap="round" stroke-linejoin="round"/>
<path d="M99.2764 11.0405H109.573" stroke="black" stroke-width="0.351901" stroke-linecap="round" stroke-linejoin="round"/>
<path d="M102.279 16.1431H108.341" stroke="black" stroke-width="0.351901" stroke-linecap="round" stroke-linejoin="round"/>
<path d="M93.833 16.1431H97.1761" stroke="black" stroke-width="0.351901" stroke-linecap="round" stroke-linejoin="round"/>
<path d="M43.5112 33.9141H58.9949" stroke="black" stroke-width="0.351901" stroke-linecap="round" stroke-linejoin="round"/>
<path d="M62.2759 33.9141H67.4303" stroke="black" stroke-width="0.351901" stroke-linecap="round" stroke-linejoin="round"/>
<path d="M70.2441 33.9141H80.5411" stroke="black" stroke-width="0.351901" stroke-linecap="round" stroke-linejoin="round"/>
<path d="M100.167 33.9141H102.269" stroke="black" stroke-width="0.351901" stroke-linecap="round" stroke-linejoin="round"/>
<path d="M103.334 33.9141H115.123" stroke="black" stroke-width="0.351901" stroke-linecap="round" stroke-linejoin="round"/>
<path d="M39.4644 22.3013H48.9657" stroke="black" stroke-width="0.351901" stroke-linecap="round" stroke-linejoin="round"/>
<path d="M52.2471 22.3013H57.0496" stroke="black" stroke-width="0.351901" stroke-linecap="round" stroke-linejoin="round"/>
<path d="M59.8633 22.3013H76.4944" stroke="black" stroke-width="0.351901" stroke-linecap="round" stroke-linejoin="round"/>
<path d="M98.0562 22.3013H110.629" stroke="black" stroke-width="0.351901" stroke-linecap="round" stroke-linejoin="round"/>
<path d="M41.752 27.9316H61.1065" stroke="black" stroke-width="0.351901" stroke-linecap="round" stroke-linejoin="round"/>
<path d="M64.3877 27.9316H73.0712" stroke="black" stroke-width="0.351901" stroke-linecap="round" stroke-linejoin="round"/>
<path d="M99.2876 27.9316H106.853" stroke="black" stroke-width="0.351901" stroke-linecap="round" stroke-linejoin="round"/>
<path d="M110.135 27.9316H112.836" stroke="black" stroke-width="0.351901" stroke-linecap="round" stroke-linejoin="round"/>
<path d="M48.6138 51.5093H64.0974" stroke="black" stroke-width="0.351901" stroke-linecap="round" stroke-linejoin="round"/>
<path d="M67.3784 51.5093H72.5328" stroke="black" stroke-width="0.351901" stroke-linecap="round" stroke-linejoin="round"/>
<path d="M75.3467 51.5093H85.6436" stroke="black" stroke-width="0.351901" stroke-linecap="round" stroke-linejoin="round"/>
<path d="M46.8545 45.5269H66.2091" stroke="black" stroke-width="0.351901" stroke-linecap="round" stroke-linejoin="round"/>
<path d="M69.4902 45.5269H78.1738" stroke="black" stroke-width="0.351901" stroke-linecap="round" stroke-linejoin="round"/>
<path d="M45.0947 39.8965H54.0682" stroke="black" stroke-width="0.351901" stroke-linecap="round" stroke-linejoin="round"/>
<path d="M57.3496 39.8965H82.0447" stroke="black" stroke-width="0.351901" stroke-linecap="round" stroke-linejoin="round"/>
<path d="M105.27 39.8965H114.068" stroke="black" stroke-width="0.351901" stroke-linecap="round" stroke-linejoin="round"/>
<path d="M86.524 120C90.9855 120 94.6023 116.383 94.6023 111.922C94.6023 107.461 90.9855 103.844 86.524 103.844C82.0625 103.844 78.4458 107.461 78.4458 111.922C78.4458 116.383 82.0625 120 86.524 120Z" fill="black"/>
<path d="M149.144 120C153.606 120 157.222 116.383 157.222 111.922C157.222 107.461 153.606 103.844 149.144 103.844C144.683 103.844 141.066 107.461 141.066 111.922C141.066 116.383 144.683 120 149.144 120Z" fill="black"/>
<path d="M140.862 48.5625H67.4038L73.726 108.774H147.184L140.862 48.5625Z" fill="#2B47EC" stroke="black" stroke-width="0.351901" stroke-linecap="round" stroke-linejoin="round"/>
<path d="M137.302 51.272H106.042L107.194 62.4112H138.454L137.302 51.272Z" fill="#FFDE55"/>
<path d="M101.424 48.5625H27.9653L34.2876 108.774H107.746L101.424 48.5625Z" fill="white" stroke="black" stroke-width="0.351901" stroke-miterlimit="10" stroke-linecap="round"/>
<path d="M144.174 66.3252H103.23L106.241 108.774H147.185L144.174 66.3252Z" fill="#2B47EC" stroke="black" stroke-width="0.351901" stroke-linecap="round" stroke-linejoin="round"/>
<path d="M157.42 66.3252H117.784L122.497 108.774H161.936L157.42 66.3252Z" fill="white" stroke="black" stroke-width="0.351901" stroke-miterlimit="10" stroke-linecap="round"/>
<path d="M150.652 70.54L140.665 83.1845H136.213L144.22 70.54H150.652Z" fill="#85BCFF"/>
<path d="M141.868 70.54L133.637 83.1845H126.579L138.858 70.54H141.868Z" fill="#85BCFF"/>
<path d="M157.721 70.54H103.531L105.036 83.1845H159.227L157.721 70.54Z" stroke="black" stroke-width="0.351901" stroke-miterlimit="10" stroke-linecap="round"/>
<path d="M159.528 86.7969H120.089L122.498 108.774H161.936L159.528 86.7969Z" fill="#2B47EC" stroke="black" stroke-width="0.351901" stroke-linecap="round" stroke-linejoin="round"/>
<path d="M169.463 86.7969H130.024L133.035 108.774H172.473L169.463 86.7969Z" fill="#2FC163" stroke="black" stroke-width="0.351901" stroke-linecap="round" stroke-linejoin="round"/>
<path d="M101.424 48.5625H27.9653L34.2876 108.774H107.746L101.424 48.5625Z" fill="#2FC163" stroke="black" stroke-width="0.351901" stroke-linecap="round" stroke-linejoin="round"/>
<path d="M130.687 90.4097L131.357 95.3194H140.13L139.357 90.4097H130.687Z" fill="white" stroke="black" stroke-width="0.351901" stroke-miterlimit="10" stroke-linecap="round"/>
<path d="M169.824 90.2515H161.84L162.698 95.3193H170.425L169.824 90.2515Z" fill="white" stroke="black" stroke-width="0.351901" stroke-miterlimit="10" stroke-linecap="round"/>
<path d="M131.697 98.6611H171.104" stroke="black" stroke-width="0.351901" stroke-miterlimit="10" stroke-linecap="round"/>
<path d="M132.425 102.454H171.372" stroke="black" stroke-width="0.351901" stroke-miterlimit="10" stroke-linecap="round"/>
<path d="M132.837 106.065H171.975" stroke="black" stroke-width="0.351901" stroke-miterlimit="10" stroke-linecap="round"/>
<path d="M171.673 108.774H35.2937C33.9636 108.774 32.8853 109.853 32.8853 111.183V111.183C32.8853 112.513 33.9636 113.591 35.2937 113.591H171.673C173.003 113.591 174.082 112.513 174.082 111.183C174.082 109.853 173.003 108.774 171.673 108.774Z" fill="white" stroke="black" stroke-width="0.351901" stroke-miterlimit="10" stroke-linecap="round"/>
<path d="M119.185 103.844L121.485 103.853C125.776 104.045 129.197 107.584 129.197 111.922C129.197 116.26 125.776 119.799 121.485 119.991L119.185 120V103.844Z" fill="#FF5943" stroke="black" stroke-width="0.351901" stroke-linecap="round" stroke-linejoin="round"/>
<path d="M119.229 120C123.691 120 127.307 116.383 127.307 111.922C127.307 107.461 123.691 103.844 119.229 103.844C114.768 103.844 111.151 107.461 111.151 111.922C111.151 116.383 114.768 120 119.229 120Z" fill="#FFDE55" stroke="black" stroke-width="0.351901" stroke-linecap="round" stroke-linejoin="round"/>
<path d="M56.019 103.844L57.9624 103.853C62.2534 104.045 65.6735 107.584 65.6735 111.922C65.6735 116.26 62.2534 119.799 57.9624 119.991L56.019 120V103.844Z" fill="#FF5943" stroke="black" stroke-width="0.351901" stroke-linecap="round" stroke-linejoin="round"/>
<path d="M55.7057 120C60.1672 120 63.7839 116.383 63.7839 111.922C63.7839 107.461 60.1672 103.844 55.7057 103.844C51.2442 103.844 47.6274 107.461 47.6274 111.922C47.6274 116.383 51.2442 120 55.7057 120Z" fill="#FFDE55" stroke="black" stroke-width="0.351901" stroke-linecap="round" stroke-linejoin="round"/>
<path d="M68.2149 64.2268C64.392 64.2268 61.1375 66.6576 59.9107 70.0576C58.7241 66.5837 55.4342 64.0845 51.5584 64.0845C46.6837 64.0845 42.7319 68.0362 42.7319 72.911C42.7319 77.7857 46.6837 81.7375 51.5584 81.7375C55.3813 81.7375 58.6358 79.3067 59.8626 75.9067C61.0491 79.3806 64.3391 81.8798 68.2149 81.8798C73.0896 81.8798 77.0414 77.9281 77.0414 73.0533C77.0414 68.1786 73.0896 64.2268 68.2149 64.2268Z" fill="white" stroke="black" stroke-width="0.351901" stroke-linecap="round" stroke-linejoin="round"/>
<path d="M51.474 77.5358C54.1792 77.5358 56.3722 75.3428 56.3722 72.6375C56.3722 69.9323 54.1792 67.7393 51.474 67.7393C48.7687 67.7393 46.5757 69.9323 46.5757 72.6375C46.5757 75.3428 48.7687 77.5358 51.474 77.5358Z" fill="black"/>
<path d="M68.2992 77.6554C71.0044 77.6554 73.1974 75.4624 73.1974 72.7572C73.1974 70.0519 71.0044 67.8589 68.2992 67.8589C65.5939 67.8589 63.4009 70.0519 63.4009 72.7572C63.4009 75.4624 65.5939 77.6554 68.2992 77.6554Z" fill="black"/>
<path d="M45.7212 59.1631H75.7597" stroke="black" stroke-width="0.351901" stroke-linecap="round" stroke-linejoin="round"/>
<path d="M56.3984 82.022H63.5166V84.4421C63.5166 86.4064 61.9218 88.0012 59.9575 88.0012C57.9932 88.0012 56.3984 86.4064 56.3984 84.4421L56.3984 82.022Z" fill="black" stroke="black" stroke-width="0.351901" stroke-linecap="round" stroke-linejoin="round"/>
<path d="M63.501 84.7566C62.756 84.2935 61.8253 84.0151 60.8119 84.0151C59.0324 84.0151 57.5028 84.8663 56.8047 86.0898C57.3993 87.2253 58.5871 88.0013 59.9578 88.0013C61.8173 88.0013 63.3416 86.5747 63.501 84.7566Z" fill="#FFDE55" stroke="black" stroke-width="0.351901" stroke-linecap="round" stroke-linejoin="round"/>
<path d="M36.2919 94.1949L31.5931 89.8058C31.4112 89.6359 31.3846 89.357 31.531 89.1558L35.3146 83.9563C35.5356 83.6526 35.3492 83.2233 34.9765 83.1774L28.5925 82.3908C28.3452 82.3604 28.1596 82.1502 28.16 81.901L21.812 78.1567C21.594 78.2775 21.3202 78.2166 21.1741 78.0148L21.0917 77.901V72.6474H17.2098C16.9764 72.5389 16.6766 72.625 16.5554 72.8849L13.8373 78.7134C13.732 78.9391 13.4747 79.0508 13.2379 78.9735L11.5702 78.4294L10.6893 76.9946H7.17299L7.1229 76.9782C7.00269 76.939 6.88458 76.9512 6.78168 76.9946H6.77558L6.77609 76.9966C6.57628 77.0837 6.43942 77.2978 6.48631 77.5402L7.70756 83.8537C7.75482 84.098 7.61245 84.3393 7.37571 84.416L1.25899 86.3981C0.901815 86.5138 0.8002 86.9706 1.07454 87.2269L5.77329 91.616C5.95517 91.7859 5.98177 92.0647 5.83536 92.2659L2.05177 97.7665C1.83075 98.0702 2.01715 98.4995 2.38987 98.5454L8.77392 99.633C9.02118 99.6635 9.20677 99.8737 9.2064 100.123L9.19607 105.952C9.19574 106.14 9.29647 106.293 9.43837 106.377C9.58022 106.461 13.5652 106.366 13.5652 106.366L13.8529 104.208L15.5544 103.265C15.7724 103.144 16.0462 103.205 16.1923 103.407L19.9653 108.618C20.1119 108.82 20.3658 108.865 20.5671 108.774H24.4033V105.162H22.385L23.5291 102.708C23.6344 102.483 23.8917 102.371 24.1285 102.448L29.6588 97.568C29.6116 97.3237 29.7539 97.0825 29.9907 97.0058L36.1074 95.0236C36.4646 94.9079 36.5662 94.4512 36.2919 94.1949Z" fill="#2B47EC" stroke="black" stroke-width="0.351901" stroke-linecap="round" stroke-linejoin="round"/>
<path d="M40.0215 95.0234L33.9047 97.0055C33.668 97.0822 33.5256 97.3234 33.5729 97.5678L34.7941 103.881C34.8655 104.25 34.5146 104.56 34.1576 104.443L28.0426 102.448C27.8057 102.371 27.5485 102.482 27.4432 102.708L24.725 108.537C24.5662 108.877 24.0998 108.922 23.8794 108.617L20.1064 103.407C19.9603 103.205 19.6865 103.144 19.4685 103.265L13.8417 106.383C13.513 106.566 13.1095 106.327 13.1101 105.952L13.1205 99.5204C13.1209 99.2713 12.9352 99.0611 12.688 99.0306L6.30396 98.2441C5.93123 98.1982 5.74485 97.7689 5.96582 97.4652L9.74943 92.2657C9.89586 92.0644 9.86924 91.7856 9.68737 91.6157L4.98862 87.2266C4.71424 86.9703 4.81589 86.5136 5.17306 86.3978L11.2898 84.4157C11.5265 84.339 11.6689 84.0978 11.6217 83.8534L10.4004 77.5399C10.3291 77.1712 10.68 76.8615 11.037 76.978L17.152 78.9733C17.3888 79.0505 17.6461 78.9389 17.7513 78.7131L20.4695 72.8846C20.6283 72.544 21.0947 72.4995 21.3151 72.8039L25.0881 78.0145C25.2342 78.2163 25.5081 78.2773 25.726 78.1565L31.3528 75.0379C31.6816 74.8557 32.085 75.0938 32.0844 75.4696L32.0741 81.9008C32.0737 82.1499 32.2593 82.3601 32.5065 82.3906L38.8906 83.1771C39.2633 83.223 39.4497 83.6524 39.2287 83.956L35.4451 89.1555C35.2987 89.3568 35.3253 89.6356 35.5072 89.8055L40.2059 94.1946C40.4803 94.4509 40.3786 94.9076 40.0215 95.0234Z" fill="#7CE09D" stroke="black" stroke-width="0.351901" stroke-linecap="round" stroke-linejoin="round"/>
<path d="M22.9548 95.8457H21.3691C20.802 95.8457 20.3353 95.3997 20.3096 94.8333L19.8039 83.7079C19.7764 83.1038 20.2587 82.5991 20.8634 82.5991H23.4605C24.0651 82.5991 24.5474 83.1038 24.52 83.7079L24.0143 94.8333C23.9885 95.3997 23.5218 95.8457 22.9548 95.8457Z" fill="white" stroke="black" stroke-width="0.351901" stroke-miterlimit="10" stroke-linecap="round"/>
<path d="M23.0038 97.9531H21.4699C20.979 97.9531 20.5811 98.3511 20.5811 98.842V100.075C20.5811 100.566 20.979 100.964 21.4699 100.964H23.0038C23.4947 100.964 23.8927 100.566 23.8927 100.075V98.842C23.8927 98.3511 23.4947 97.9531 23.0038 97.9531Z" fill="white" stroke="black" stroke-width="0.351901" stroke-miterlimit="10" stroke-linecap="round"/>
</g>
<defs>
<clipPath id="clip0_528_6517">
<rect width="173.164" height="120" fill="white" transform="translate(0.917969)"/>
</clipPath>
</defs>
</svg>
