<svg width="20" height="20" viewBox="0 0 20 20" fill="none" xmlns="http://www.w3.org/2000/svg">
<g id="alarm-clock">
<path id="Vector (Stroke)" fill-rule="evenodd" clip-rule="evenodd" d="M5.26143 1.18204C5.52894 1.55655 5.44219 2.07701 5.06768 2.34452L2.15102 4.42785C1.7765 4.69536 1.25605 4.60861 0.988539 4.2341C0.721031 3.85959 0.807774 3.33914 1.18228 3.07163L4.09895 0.988295C4.47346 0.720787 4.99392 0.80753 5.26143 1.18204ZM14.7385 1.18204C15.006 0.80753 15.5265 0.720787 15.901 0.988295L18.8177 3.07163C19.1922 3.33914 19.2789 3.85959 19.0114 4.2341C18.7439 4.60861 18.2235 4.69536 17.849 4.42785L14.9323 2.34452C14.5578 2.07701 14.471 1.55655 14.7385 1.18204ZM1.52775 10.8331C1.52775 6.15398 5.32087 2.36086 9.99998 2.36086C14.6791 2.36086 18.4722 6.15398 18.4722 10.8331C18.4722 15.5122 14.6791 19.3053 9.99998 19.3053C5.32087 19.3053 1.52775 15.5122 1.52775 10.8331ZM9.99998 4.02752C6.24134 4.02752 3.19441 7.07445 3.19441 10.8331C3.19441 14.5917 6.24134 17.6386 9.99998 17.6386C13.7586 17.6386 16.8055 14.5917 16.8055 10.8331C16.8055 7.07445 13.7586 4.02752 9.99998 4.02752ZM9.89982 5.56372C10.3601 5.56377 10.7331 5.9369 10.7331 6.39714L10.7326 10.6389L13.7269 13.6333C14.0524 13.9587 14.0524 14.4863 13.7269 14.8118C13.4015 15.1372 12.8739 15.1372 12.5484 14.8118L9.30998 11.5733C9.15367 11.417 9.06588 11.205 9.0659 10.984L9.0664 6.39696C9.06645 5.93672 9.43959 5.56367 9.89982 5.56372Z" fill="#6839FF"/>
</g>
</svg>
