<svg width="20" height="20" viewBox="0 0 20 20" fill="none" xmlns="http://www.w3.org/2000/svg">
<g id="add-one">
<path id="Vector" fill-rule="evenodd" clip-rule="evenodd" d="M0.833252 9.99967C0.833252 4.93706 4.93731 0.833008 9.99992 0.833008C15.0625 0.833008 19.1666 4.93706 19.1666 9.99967C19.1666 15.0623 15.0625 19.1663 9.99992 19.1663C4.93731 19.1663 0.833252 15.0623 0.833252 9.99967ZM9.99992 2.49967C5.85778 2.49967 2.49992 5.85754 2.49992 9.99967C2.49992 14.1418 5.85778 17.4997 9.99992 17.4997C14.1421 17.4997 17.4999 14.1418 17.4999 9.99967C17.4999 5.85754 14.1421 2.49967 9.99992 2.49967ZM9.99992 5.83301C10.4602 5.83301 10.8333 6.2061 10.8333 6.66634V9.16634H13.3333C13.7935 9.16634 14.1666 9.53944 14.1666 9.99967C14.1666 10.4599 13.7935 10.833 13.3333 10.833H10.8333V13.333C10.8333 13.7932 10.4602 14.1663 9.99992 14.1663C9.53968 14.1663 9.16658 13.7932 9.16658 13.333V10.833H6.66658C6.20635 10.833 5.83325 10.4599 5.83325 9.99967C5.83325 9.53944 6.20635 9.16634 6.66658 9.16634H9.16658V6.66634C9.16658 6.2061 9.53968 5.83301 9.99992 5.83301Z" fill="#6839FF"/>
</g>
</svg>
