<svg width="24" height="24" viewBox="0 0 24 24" fill="none" xmlns="http://www.w3.org/2000/svg">
<g id="building-four">
<path id="Vector (Stroke)" fill-rule="evenodd" clip-rule="evenodd" d="M7.89029 6.20739C8.16307 5.99755 8.52459 5.94273 8.84731 6.06226L22.3473 11.0623C22.7396 11.2076 23 11.5817 23 12V22C23 22.5523 22.5523 23 22 23H2C1.44772 23 1 22.5523 1 22V12C1 11.6895 1.1442 11.3967 1.39029 11.2074L7.89029 6.20739ZM14 21H16.5V16.7208L14 15.8874V21ZM18.5 21V16C18.5 15.5696 18.2246 15.1874 17.8162 15.0513L13.3162 13.5513C13.0113 13.4497 12.6761 13.5008 12.4153 13.6888C12.1545 13.8767 12 14.1786 12 14.5V21H9.5V8.43676L21 12.696V21H18.5ZM7.5 9.03087V21H3V12.4924L7.5 9.03087Z" fill="#6839FF"/>
</g>
</svg>
