<svg width="32" height="32" viewBox="0 0 32 32" fill="none" xmlns="http://www.w3.org/2000/svg">
<path fill-rule="evenodd" clip-rule="evenodd" d="M13.3842 1.4842C13.8252 1.2546 14.3573 1.28942 14.7646 1.57452L21.4313 6.24119C21.7877 6.4907 22 6.89841 22 7.3335V15.314L26.1083 18.2485C26.4587 18.4988 26.6666 18.9029 26.6666 19.3335V28.0002H29.3333C30.0697 28.0002 30.6666 28.5971 30.6666 29.3335C30.6666 30.0699 30.0697 30.6668 29.3333 30.6668H2.66665C1.93027 30.6668 1.33331 30.0699 1.33331 29.3335C1.33331 28.5971 1.93027 28.0002 2.66665 28.0002H5.99998V13.3335C5.99998 12.8984 6.21226 12.4907 6.5687 12.2412L12.6666 7.97263V2.66683C12.6666 2.16967 12.9433 1.71379 13.3842 1.4842ZM15.3333 8.68315C15.3335 8.6715 15.3335 8.65985 15.3333 8.64819V5.22771L19.3333 8.02771V16.0002C19.3333 16.4308 19.5413 16.8349 19.8917 17.0851L24 20.0197V28.0002H15.3333V8.68315ZM12.6666 11.2277L8.66665 14.0277V28.0002H12.6666V11.2277Z" fill="#6B7280"/>
</svg>
