<svg width="22" height="22" viewBox="0 0 22 22" fill="none" xmlns="http://www.w3.org/2000/svg">
<g id="calendar-three">
<path id="Vector (Stroke)" fill-rule="evenodd" clip-rule="evenodd" d="M7.79175 0.916992C8.29801 0.916992 8.70842 1.3274 8.70842 1.83366V2.75033H13.2917V1.83366C13.2917 1.3274 13.7022 0.916992 14.2084 0.916992C14.7147 0.916992 15.1251 1.3274 15.1251 1.83366V2.75033H19.2501C20.2626 2.75033 21.0834 3.57114 21.0834 4.58366V19.2503C21.0834 20.2628 20.2626 21.0837 19.2501 21.0837H2.75008C1.73756 21.0837 0.916748 20.2628 0.916748 19.2503V4.58366C0.916748 3.57114 1.73756 2.75033 2.75008 2.75033H6.87508V1.83366C6.87508 1.3274 7.28549 0.916992 7.79175 0.916992ZM6.87508 4.58366H2.75008V8.25033H19.2501V4.58366H15.1251V5.50033C15.1251 6.00659 14.7147 6.41699 14.2084 6.41699C13.7022 6.41699 13.2917 6.00659 13.2917 5.50033V4.58366H8.70842V5.50033C8.70842 6.00659 8.29801 6.41699 7.79175 6.41699C7.28549 6.41699 6.87508 6.00659 6.87508 5.50033V4.58366ZM19.2501 10.0837H15.1251V13.7503H19.2501V10.0837ZM19.2501 15.5837H15.1251V19.2503H19.2501V15.5837ZM13.2917 19.2503V15.5837H8.70842V19.2503H13.2917ZM6.87508 19.2503V15.5837H2.75008V19.2503H6.87508ZM2.75008 13.7503H6.87508V10.0837H2.75008V13.7503ZM8.70842 10.0837V13.7503H13.2917V10.0837H8.70842Z" fill="#374151"/>
</g>
</svg>
