<svg width="24" height="24" viewBox="0 0 24 24" fill="none" xmlns="http://www.w3.org/2000/svg">
<g id="message-emoji">
<g id="Vector">
<path d="M16.5 8C16.5 7.44772 16.0523 7 15.5 7C14.9477 7 14.5 7.44772 14.5 8V8.5C14.5 9.05228 14.9477 9.5 15.5 9.5C16.0523 9.5 16.5 9.05228 16.5 8.5V8Z" fill="#B28D26"/>
<path d="M8.5 7C9.05229 7 9.5 7.44772 9.5 8V8.5C9.5 9.05228 9.05229 9.5 8.5 9.5C7.94772 9.5 7.5 9.05228 7.5 8.5V8C7.5 7.44772 7.94772 7 8.5 7Z" fill="#B28D26"/>
<path d="M8.05279 11.6058C8.5441 11.3601 9.14095 11.5569 9.3904 12.045L9.39113 12.0464C9.39362 12.051 9.39968 12.062 9.40939 12.0785C9.42889 12.1115 9.46265 12.166 9.51134 12.2347C9.60948 12.3733 9.76331 12.563 9.97687 12.7528C10.3956 13.125 11.0428 13.5002 12 13.5002C12.9572 13.5002 13.6044 13.125 14.0231 12.7528C14.2367 12.563 14.3905 12.3733 14.4887 12.2347C14.5374 12.166 14.5711 12.1115 14.5906 12.0785C14.5974 12.0669 14.6025 12.058 14.6057 12.0522L14.6064 12.0513C14.6076 12.0493 14.6089 12.0464 14.6089 12.0464L14.6096 12.045C14.859 11.5569 15.4559 11.3601 15.9472 11.6058C16.4412 11.8528 16.6414 12.4535 16.3944 12.9474L15.5 12.5002C16.3944 12.9474 16.394 12.9483 16.394 12.9483L16.3925 12.9513L16.3901 12.9559L16.3842 12.9674C16.3817 12.9723 16.3787 12.9779 16.3755 12.984C16.373 12.9887 16.3703 12.9936 16.3675 12.999C16.3541 13.0237 16.3362 13.0556 16.3137 13.0938C16.2687 13.1701 16.2048 13.272 16.1207 13.3907C15.9532 13.6272 15.7008 13.9375 15.3519 14.2476C14.6456 14.8754 13.5428 15.5002 12 15.5002C10.4572 15.5002 9.35443 14.8754 8.64814 14.2476C8.2992 13.9375 8.04677 13.6272 7.87929 13.3907C7.79516 13.272 7.73127 13.1701 7.68631 13.0938C7.6638 13.0556 7.64593 13.0237 7.63255 12.999C7.62586 12.9866 7.62028 12.976 7.61579 12.9674L7.60987 12.9559L7.60752 12.9513L7.6065 12.9493L7.60602 12.9483C7.60602 12.9483 7.60557 12.9474 8.5 12.5002L7.60557 12.9474C7.35859 12.4535 7.55881 11.8528 8.05279 11.6058Z" fill="#B28D26"/>
<path fill-rule="evenodd" clip-rule="evenodd" d="M2 2.5C1.44772 2.5 1 2.94772 1 3.5V18.5C1 19.0523 1.44772 19.5 2 19.5H4.5V21C4.5 21.3466 4.67945 21.6684 4.97427 21.8507C5.26909 22.0329 5.63723 22.0494 5.94721 21.8944L10.7361 19.5H22C22.5523 19.5 23 19.0523 23 18.5V3.5C23 2.94772 22.5523 2.5 22 2.5H2ZM3 17.5V4.5H21V17.5H10.5C10.3448 17.5 10.1916 17.5361 10.0528 17.6056L6.5 19.382V18.5C6.5 17.9477 6.05228 17.5 5.5 17.5H3Z" fill="#B28D26"/>
</g>
<path id="Vector_2" fill-rule="evenodd" clip-rule="evenodd" d="M3 4.5V17.5H5.5C6.05228 17.5 6.5 17.9477 6.5 18.5V19.382L10.0528 17.6056C10.1916 17.5361 10.3448 17.5 10.5 17.5H21V4.5H3ZM16.5 8C16.5 7.44772 16.0523 7 15.5 7C14.9477 7 14.5 7.44772 14.5 8V8.5C14.5 9.05228 14.9477 9.5 15.5 9.5C16.0523 9.5 16.5 9.05228 16.5 8.5V8ZM8.5 7C9.05229 7 9.5 7.44772 9.5 8V8.5C9.5 9.05228 9.05229 9.5 8.5 9.5C7.94772 9.5 7.5 9.05228 7.5 8.5V8C7.5 7.44772 7.94772 7 8.5 7ZM8.05279 11.6058C8.5441 11.3601 9.14095 11.5569 9.3904 12.045L9.39113 12.0464C9.39362 12.051 9.39968 12.062 9.40939 12.0785C9.42889 12.1115 9.46265 12.166 9.51134 12.2347C9.60948 12.3733 9.76331 12.563 9.97687 12.7528C10.3956 13.125 11.0428 13.5002 12 13.5002C12.9572 13.5002 13.6044 13.125 14.0231 12.7528C14.2367 12.563 14.3905 12.3733 14.4887 12.2347C14.5374 12.166 14.5711 12.1115 14.5906 12.0785C14.5974 12.0669 14.6025 12.058 14.6057 12.0522L14.6064 12.0513C14.6076 12.0493 14.6089 12.0464 14.6089 12.0464L14.6096 12.045C14.859 11.5569 15.4559 11.3601 15.9472 11.6058C16.4412 11.8528 16.6414 12.4535 16.3944 12.9474L15.5 12.5002C16.3944 12.9474 16.394 12.9483 16.394 12.9483L16.3925 12.9513L16.3901 12.9559L16.3842 12.9674L16.3755 12.984L16.3675 12.999C16.3541 13.0237 16.3362 13.0556 16.3137 13.0938C16.2687 13.1701 16.2048 13.272 16.1207 13.3907C15.9532 13.6272 15.7008 13.9375 15.3519 14.2476C14.6456 14.8754 13.5428 15.5002 12 15.5002C10.4572 15.5002 9.35443 14.8754 8.64814 14.2476C8.2992 13.9375 8.04677 13.6272 7.87929 13.3907C7.79516 13.272 7.73127 13.1701 7.68631 13.0938C7.6638 13.0556 7.64593 13.0237 7.63255 12.999C7.62586 12.9866 7.62028 12.976 7.61579 12.9674L7.60987 12.9559L7.60752 12.9513L7.6065 12.9493L7.60602 12.9483C7.60602 12.9483 7.60557 12.9474 8.5 12.5002L7.60557 12.9474C7.35859 12.4535 7.55881 11.8528 8.05279 11.6058Z" fill="#FFF8E5"/>
</g>
</svg>
