<svg width="20" height="20" viewBox="0 0 20 20" fill="none" xmlns="http://www.w3.org/2000/svg">
<g id="coupon">
<g id="Vector">
<path d="M7.14051 5.41525C7.46729 5.09116 7.99492 5.09335 8.31901 5.42014L10 7.11518L11.6811 5.42014C12.0052 5.09335 12.5328 5.09116 12.8596 5.41525C13.1864 5.73933 13.1885 6.26696 12.8645 6.59375L11.2426 8.22917H12.6516C13.1118 8.22917 13.4849 8.60226 13.4849 9.0625C13.4849 9.52274 13.1118 9.89583 12.6516 9.89583H10.8334V10.9028H12.6516C13.1118 10.9028 13.4849 11.2759 13.4849 11.7361C13.4849 12.1963 13.1118 12.5694 12.6516 12.5694H10.8334V14.4097C10.8334 14.87 10.4603 15.2431 10 15.2431C9.5398 15.2431 9.16671 14.87 9.16671 14.4097V12.5694H7.34853C6.88829 12.5694 6.51519 12.1963 6.51519 11.7361C6.51519 11.2759 6.88829 10.9028 7.34853 10.9028H9.16671V9.89583H7.34853C6.88829 9.89583 6.51519 9.52274 6.51519 9.0625C6.51519 8.60226 6.88829 8.22917 7.34853 8.22917H8.75752L7.13562 6.59375C6.81153 6.26696 6.81372 5.73933 7.14051 5.41525Z" fill="#26B246"/>
<path fill-rule="evenodd" clip-rule="evenodd" d="M0.833374 3.33333C0.833374 2.8731 1.20647 2.5 1.66671 2.5H18.3334C18.7936 2.5 19.1667 2.8731 19.1667 3.33333V8.04707C19.1667 8.39945 18.9451 8.71374 18.6131 8.83204C18.0553 9.03085 17.6516 9.57033 17.6516 10.2083C17.6516 10.8463 18.0553 11.3858 18.6131 11.5846C18.9451 11.7029 19.1667 12.0172 19.1667 12.3696V17.0833C19.1667 17.5436 18.7936 17.9167 18.3334 17.9167H1.66671C1.20647 17.9167 0.833374 17.5436 0.833374 17.0833V12.3696C0.833374 12.0172 1.05502 11.7029 1.38695 11.5846C1.94478 11.3858 2.34853 10.8463 2.34853 10.2083C2.34853 9.57586 1.95175 9.04021 1.40142 8.83729C1.07125 8.72649 0.833374 8.41456 0.833374 8.04707V3.33333ZM2.50004 4.16667V7.524C3.40876 8.07016 4.01519 9.06905 4.01519 10.2083C4.01519 11.3476 3.40876 12.3465 2.50004 12.8927V16.25H17.5V12.8927C16.5913 12.3465 15.9849 11.3476 15.9849 10.2083C15.9849 9.06905 16.5913 8.07016 17.5 7.524V4.16667H2.50004Z" fill="#26B246"/>
</g>
</g>
</svg>
