<svg width="28" height="28" viewBox="0 0 28 28" fill="none" xmlns="http://www.w3.org/2000/svg">
<path d="M24.5 14.875C24.0548 20.265 19.5048 24.5 14 24.5C11.2152 24.5 8.54451 23.3938 6.57538 21.4246C4.60625 19.4555 3.5 16.7848 3.5 14C3.5 8.49516 7.735 3.94516 13.125 3.5" stroke="#0C111C" stroke-width="2" stroke-linecap="round" stroke-linejoin="round"/>
<path d="M14 7.875V14H20.125" stroke="#0C111C" stroke-width="2" stroke-linecap="round" stroke-linejoin="round"/>
<path d="M17.5 2.6875C18.1904 2.6875 18.75 3.24714 18.75 3.9375C18.75 4.62786 18.1904 5.1875 17.5 5.1875C16.8096 5.1875 16.25 4.62786 16.25 3.9375C16.25 3.24714 16.8096 2.6875 17.5 2.6875Z" fill="#0C111C" stroke="#0C111C" stroke-width="0.125"/>
<path d="M21.4375 5.3125C22.1279 5.3125 22.6875 5.87214 22.6875 6.5625C22.6875 7.25286 22.1279 7.8125 21.4375 7.8125C20.7471 7.8125 20.1875 7.25286 20.1875 6.5625C20.1875 5.87214 20.7471 5.3125 21.4375 5.3125Z" fill="#0C111C" stroke="#0C111C" stroke-width="0.125"/>
<path d="M24.0625 11.8125C24.7874 11.8125 25.375 11.2249 25.375 10.5C25.375 9.77513 24.7874 9.1875 24.0625 9.1875C23.3376 9.1875 22.75 9.77513 22.75 10.5C22.75 11.2249 23.3376 11.8125 24.0625 11.8125Z" fill="#0C111C"/>
</svg>
