<svg width="20" height="20" viewBox="0 0 20 20" fill="none" xmlns="http://www.w3.org/2000/svg">
<g id="moon">
<path id="Vector (Stroke)" fill-rule="evenodd" clip-rule="evenodd" d="M8.71198 2.60986C5.18358 3.22056 2.50004 6.29673 2.50004 9.99967C2.50004 14.1418 5.8579 17.4997 10 17.4997C13.703 17.4997 16.7791 14.8161 17.3899 11.2877C16.2781 12.4103 14.7358 13.1057 13.0303 13.1057C9.6413 13.1057 6.894 10.3584 6.894 6.96938C6.894 5.26391 7.58947 3.72164 8.71198 2.60986ZM0.833374 9.99967C0.833374 4.93706 4.93743 0.833008 10 0.833008C10.6353 0.833008 11.2564 0.897758 11.8567 1.0213C12.2361 1.09939 12.5116 1.42862 12.5217 1.81584C12.5318 2.20307 12.2737 2.54618 11.8989 2.64391C9.97772 3.14479 8.56066 4.89264 8.56066 6.96938C8.56066 9.43794 10.5618 11.439 13.0303 11.439C15.1071 11.439 16.8549 10.022 17.3558 8.10083C17.4535 7.726 17.7966 7.46793 18.1838 7.478C18.5711 7.48807 18.9003 7.76363 18.9784 8.14303C19.1019 8.7433 19.1667 9.36438 19.1667 9.99967C19.1667 15.0623 15.0627 19.1663 10 19.1663C4.93743 19.1663 0.833374 15.0623 0.833374 9.99967Z" fill="#B28D26"/>
</g>
</svg>
