<svg width="20" height="20" viewBox="0 0 20 20" fill="none" xmlns="http://www.w3.org/2000/svg">
<g id="document-folder">
<g id="Vector">
<path fill-rule="evenodd" clip-rule="evenodd" d="M3.60819 1.2527C3.15479 1.21639 2.75603 1.55035 2.71221 2.00309L1.25388 17.0694C1.23236 17.2917 1.30102 17.5134 1.44446 17.6847C1.58791 17.856 1.79411 17.9625 2.01681 17.9803L6.39181 18.3307C6.84521 18.367 7.24397 18.0331 7.28779 17.5803L8.74613 2.51404C8.76765 2.29167 8.69899 2.06997 8.55554 1.8987C8.4121 1.72742 8.20589 1.62091 7.98319 1.60308L3.60819 1.2527ZM2.99442 16.3866L4.29216 2.97948L7.00558 3.19679L5.70785 16.6039L2.99442 16.3866Z" fill="#374151"/>
<path d="M15.8333 5.41671C16.2936 5.41671 16.6667 5.7898 16.6667 6.25004V7.50004C16.6667 7.96028 16.2936 8.33337 15.8333 8.33337C15.3731 8.33337 15 7.96028 15 7.50004V6.25004C15 5.7898 15.3731 5.41671 15.8333 5.41671Z" fill="#374151"/>
<path d="M12.5 6.25004C12.5 5.7898 12.1269 5.41671 11.6667 5.41671C11.2064 5.41671 10.8333 5.7898 10.8333 6.25004V7.50004C10.8333 7.96028 11.2064 8.33337 11.6667 8.33337C12.1269 8.33337 12.5 7.96028 12.5 7.50004V6.25004Z" fill="#374151"/>
<path fill-rule="evenodd" clip-rule="evenodd" d="M8.75 2.50004C8.75 2.0398 9.1231 1.66671 9.58333 1.66671H17.9167C18.3769 1.66671 18.75 2.0398 18.75 2.50004V17.5C18.75 17.9603 18.3769 18.3334 17.9167 18.3334H9.58333C9.1231 18.3334 8.75 17.9603 8.75 17.5V2.50004ZM14.5833 16.6667V3.33337H17.0833V16.6667H14.5833ZM10.4167 3.33337H12.9167V16.6667H10.4167V3.33337Z" fill="#374151"/>
</g>
</g>
</svg>
