<svg width="20" height="20" viewBox="0 0 20 20" fill="none" xmlns="http://www.w3.org/2000/svg">
<g id="delete-one">
<g id="Vector">
<path d="M7.91675 13.75C7.45651 13.75 7.08342 14.1231 7.08342 14.5833C7.08342 15.0436 7.45651 15.4167 7.91675 15.4167H12.0834C12.5437 15.4167 12.9167 15.0436 12.9167 14.5833C12.9167 14.1231 12.5437 13.75 12.0834 13.75H7.91675Z" fill="#FF3840"/>
<path fill-rule="evenodd" clip-rule="evenodd" d="M6.75008 1.25C6.34417 1.25 5.99731 1.54246 5.92873 1.94253L5.54745 4.16667H2.50008C2.03984 4.16667 1.66675 4.53976 1.66675 5C1.66675 5.46024 2.03984 5.83333 2.50008 5.83333H3.80211L4.58514 17.9703C4.61343 18.4088 4.97734 18.75 5.41675 18.75H14.5834C15.0228 18.75 15.3867 18.4088 15.415 17.9703L16.1981 5.83333H17.5001C17.9603 5.83333 18.3334 5.46024 18.3334 5C18.3334 4.53976 17.9603 4.16667 17.5001 4.16667H14.4527L14.0714 1.94253C14.0028 1.54246 13.656 1.25 13.2501 1.25H6.75008ZM12.7617 4.16667H7.23843L7.45271 2.91667H12.5474L12.7617 4.16667ZM6.19805 17.0833L5.47224 5.83333H14.5279L13.8021 17.0833H6.19805Z" fill="#FF3840"/>
</g>
</g>
</svg>
