<svg width="29" height="28" viewBox="0 0 29 28" fill="none" xmlns="http://www.w3.org/2000/svg">
<path d="M22.2085 24.5C23.6582 24.5 24.8335 23.3247 24.8335 21.875C24.8335 20.4253 23.6582 19.25 22.2085 19.25C20.7587 19.25 19.5835 20.4253 19.5835 21.875C19.5835 23.3247 20.7587 24.5 22.2085 24.5Z" stroke="#0C111C" stroke-width="2" stroke-linecap="round" stroke-linejoin="round"/>
<path d="M8.2085 6.125H18.7085C19.6368 6.125 20.527 6.49375 21.1834 7.15013C21.8397 7.8065 22.2085 8.69674 22.2085 9.625C22.2085 10.5533 21.8397 11.4435 21.1834 12.0999C20.527 12.7563 19.6368 13.125 18.7085 13.125H8.2085C7.04817 13.125 5.93538 13.5859 5.1149 14.4064C4.29443 15.2269 3.8335 16.3397 3.8335 17.5C3.8335 18.6603 4.29443 19.7731 5.1149 20.5936C5.93538 21.4141 7.04817 21.875 8.2085 21.875H19.5835" stroke="#0C111C" stroke-width="2" stroke-linecap="round" stroke-linejoin="round"/>
</svg>
