<svg width="32" height="32" viewBox="0 0 32 32" fill="none" xmlns="http://www.w3.org/2000/svg">
<g id="doc-search">
<g id="Vector">
<path fill-rule="evenodd" clip-rule="evenodd" d="M15.3333 6.00016C12.756 6.00016 10.6667 8.08952 10.6667 10.6668C10.6667 13.2441 12.756 15.3335 15.3333 15.3335C16.1364 15.3335 16.893 15.1299 17.5532 14.7724L19.0572 16.2763C19.5779 16.797 20.4221 16.797 20.9428 16.2763C21.4635 15.7556 21.4635 14.9114 20.9428 14.3907L19.4389 12.8867C19.7965 12.2265 20 11.4699 20 10.6668C20 8.08952 17.9106 6.00016 15.3333 6.00016ZM17.3333 10.6668C17.3333 11.2195 17.1109 11.7176 16.7476 12.081C16.3842 12.4443 15.886 12.6668 15.3333 12.6668C14.2288 12.6668 13.3333 11.7714 13.3333 10.6668C13.3333 9.56227 14.2288 8.66683 15.3333 8.66683C16.4379 8.66683 17.3333 9.56227 17.3333 10.6668Z" fill="#6B7280"/>
<path d="M10 20.0002C10 19.2638 10.597 18.6668 11.3333 18.6668H20.6667C21.403 18.6668 22 19.2638 22 20.0002C22 20.7365 21.403 21.3335 20.6667 21.3335H11.3333C10.597 21.3335 10 20.7365 10 20.0002Z" fill="#6B7280"/>
<path d="M11.3333 22.6668C10.597 22.6668 10 23.2638 10 24.0002C10 24.7365 10.597 25.3335 11.3333 25.3335H16C16.7364 25.3335 17.3333 24.7365 17.3333 24.0002C17.3333 23.2638 16.7364 22.6668 16 22.6668H11.3333Z" fill="#6B7280"/>
<path fill-rule="evenodd" clip-rule="evenodd" d="M6.66667 1.3335C5.19391 1.3335 4 2.5274 4 4.00016V28.0002C4 29.473 5.19392 30.6668 6.66667 30.6668H25.3333C26.8061 30.6668 28 29.4729 28 28.0002V4.00016C28 2.52742 26.8061 1.3335 25.3333 1.3335H6.66667ZM6.66667 4.00016H25.3333V28.0002H6.66667V4.00016Z" fill="#6B7280"/>
</g>
</g>
</svg>
