<svg width="25" height="24" viewBox="0 0 25 24" fill="none" xmlns="http://www.w3.org/2000/svg">
<g id="noodles">
<path id="Vector" fill-rule="evenodd" clip-rule="evenodd" d="M23.3756 1.78022C23.4968 2.31903 23.1583 2.8541 22.6195 2.97534L17.4 4.14972V10.9998H22.4C22.9523 10.9998 23.4 11.4475 23.4 11.9998C23.4 14.9567 22.5065 17.7169 20.6356 19.7483C18.7523 21.7931 15.9699 22.9998 12.4 22.9998C8.83019 22.9998 6.04775 21.7931 4.16446 19.7483C2.29358 17.7169 1.40002 14.9567 1.40002 11.9998C1.40002 11.4475 1.84774 10.9998 2.40002 10.9998H3.40002V7.29972L2.61951 7.47534C2.08069 7.59657 1.54562 7.25805 1.42439 6.71924C1.30315 6.18043 1.64167 5.64535 2.18048 5.52412L3.40002 5.24972V4.99976C3.40002 4.44747 3.84774 3.99976 4.40002 3.99976C4.88532 3.99976 5.28988 4.34545 5.38088 4.80403L7.40002 4.34972V3.99976C7.40002 3.44747 7.84774 2.99976 8.40002 2.99976C8.91892 2.99976 9.34551 3.39497 9.39519 3.90081L11.4 3.44972V2.99976C11.4 2.44747 11.8477 1.99976 12.4 1.99976C12.9523 1.99976 13.4 2.44745 13.4 2.99972L15.4 2.54972V1.99976C15.4 1.44747 15.8477 0.999756 16.4 0.999756C16.9523 0.999756 17.4 1.44747 17.4 1.99976V2.09972L22.1805 1.02412C22.7193 0.902885 23.2544 1.2414 23.3756 1.78022ZM5.40002 10.9998H7.40002V6.39972L5.40002 6.84972V10.9998ZM9.40002 10.9998H11.4V5.49972L9.40002 5.94972V10.9998ZM13.4 10.9998H15.4V4.59972L13.4 5.04972V10.9998Z" fill="#6B7280"/>
</g>
</svg>
