<svg width="20" height="20" viewBox="0 0 20 20" fill="none" xmlns="http://www.w3.org/2000/svg">
<g id="edit">
<path id="Vector (Stroke)" fill-rule="evenodd" clip-rule="evenodd" d="M13.2061 1.66699C13.4272 1.66695 13.6393 1.7548 13.7956 1.9112L16.8393 4.95624C17.1646 5.28165 17.1646 5.80909 16.8393 6.13449L8.22147 14.7561C8.06518 14.9125 7.85316 15.0003 7.63208 15.0003H4.58325C4.12301 15.0003 3.74992 14.6272 3.74992 14.167V11.1336C3.74992 10.9128 3.83758 10.701 3.99364 10.5447L12.6166 1.91142C12.7729 1.75497 12.9849 1.66703 13.2061 1.66699ZM13.2064 3.67932L5.41659 11.4785V13.3337H7.2868L15.0717 5.54537L13.2064 3.67932ZM2.08325 17.5003C2.08325 17.0401 2.45635 16.667 2.91659 16.667H17.9166C18.3768 16.667 18.7499 17.0401 18.7499 17.5003C18.7499 17.9606 18.3768 18.3337 17.9166 18.3337H2.91659C2.45635 18.3337 2.08325 17.9606 2.08325 17.5003Z" fill="#6839FF"/>
</g>
</svg>
