<svg width="32" height="32" viewBox="0 0 32 32" fill="none" xmlns="http://www.w3.org/2000/svg">
<path d="M12.6666 4C13.0623 4 13.4376 4.17576 13.6909 4.47975L16.6253 8H27.9999C29.4058 8 30.5575 9.08782 30.6593 10.4676L30.6666 10.6667V26.6667C30.6666 28.1394 29.4727 29.3333 27.9999 29.3333H3.99992C2.52716 29.3333 1.33325 28.1394 1.33325 26.6667V6.66667C1.33325 5.19391 2.52716 4 3.99992 4H12.6666ZM12.0413 6.66667H3.99992V26.6667H27.9999V10.6667H15.9999C15.6042 10.6667 15.2289 10.4909 14.9756 10.1869L12.0413 6.66667ZM15.2851 12.8743L15.3005 12.8645C15.3209 12.8519 15.3417 12.8398 15.3626 12.8284C15.388 12.8147 15.4143 12.8015 15.441 12.7891C15.4594 12.7806 15.4775 12.7727 15.4958 12.7652C15.5239 12.7538 15.5525 12.7432 15.5816 12.7336C15.6049 12.726 15.6285 12.7189 15.6523 12.7125C15.6768 12.7058 15.7017 12.6999 15.7269 12.6946C15.753 12.6893 15.7788 12.6848 15.8047 12.6809C15.8286 12.6773 15.8535 12.6744 15.8786 12.6721C15.9111 12.6692 15.9431 12.6675 15.9751 12.6669C15.9829 12.6667 15.9914 12.6667 15.9999 12.6667L16.0259 12.6669C16.0566 12.6675 16.0873 12.6692 16.1179 12.6719L15.9999 12.6667C16.0674 12.6667 16.1337 12.6717 16.1985 12.6814C16.2208 12.6848 16.244 12.6889 16.267 12.6935C16.2969 12.6995 16.3258 12.7064 16.3544 12.7143C16.3747 12.72 16.3953 12.7262 16.4157 12.7328C16.4423 12.7415 16.4687 12.7511 16.4947 12.7615C16.518 12.7708 16.5411 12.7808 16.5639 12.7914C16.5918 12.8045 16.619 12.8184 16.6456 12.8332C16.6615 12.8419 16.6779 12.8513 16.694 12.8612C16.7283 12.8823 16.7614 12.9047 16.7935 12.9284C16.8014 12.9342 16.8092 12.9402 16.817 12.9462C16.8261 12.9534 16.83 12.9565 16.8338 12.9596L16.9427 13.0572L21.6094 17.7239C22.1301 18.2446 22.1301 19.0888 21.6094 19.6095C21.1287 20.0901 20.3724 20.1271 19.8494 19.7204L19.7238 19.6095L17.3333 17.22V23.3333C17.3333 24.0697 16.7363 24.6667 15.9999 24.6667C15.3161 24.6667 14.7526 24.1519 14.6756 23.4888L14.6666 23.3333V17.2213L12.2771 19.6188C11.797 20.1 11.0407 20.1378 10.5172 19.7317L10.3915 19.6209C9.91031 19.1408 9.8725 18.3845 10.2786 17.861L10.3894 17.7353L15.0458 13.0686C15.0874 13.026 15.1319 12.9861 15.1789 12.9494L15.1816 12.9471L15.2851 12.8743Z" fill="#5BC236"/>
<path fill-rule="evenodd" clip-rule="evenodd" d="M12.0413 6.66675H4V26.6667H28V10.6667H16C15.6043 10.6667 15.229 10.491 14.9757 10.187L12.0413 6.66675ZM15.2852 12.8743L15.3005 12.8646C15.321 12.852 15.3417 12.8399 15.3627 12.8285C15.3881 12.8148 15.4144 12.8015 15.4411 12.7892C15.4594 12.7807 15.4776 12.7728 15.4959 12.7653C15.524 12.7539 15.5526 12.7433 15.5817 12.7337C15.605 12.7261 15.6286 12.719 15.6524 12.7126C15.6769 12.7059 15.7018 12.7 15.727 12.6947C15.7531 12.6894 15.7789 12.6848 15.8048 12.681C15.8287 12.6774 15.8536 12.6745 15.8786 12.6722C15.9111 12.6693 15.9432 12.6676 15.9752 12.667L16 12.6667C16.0675 12.6667 16.1338 12.6718 16.1986 12.6814C16.2209 12.6849 16.244 12.6889 16.2671 12.6936C16.297 12.6996 16.3259 12.7065 16.3545 12.7144C16.3748 12.7201 16.3954 12.7262 16.4158 12.7329C16.4424 12.7416 16.4688 12.7512 16.4947 12.7616C16.518 12.7709 16.5411 12.7808 16.564 12.7915C16.5919 12.8046 16.6191 12.8185 16.6457 12.8332C16.6616 12.8419 16.6779 12.8514 16.6941 12.8613C16.7284 12.8824 16.7615 12.9047 16.7935 12.9285C16.8015 12.9343 16.8093 12.9402 16.8171 12.9463L16.8339 12.9597L16.9428 13.0573L21.6095 17.7239C22.1302 18.2446 22.1302 19.0889 21.6095 19.6096C21.1288 20.0902 20.3725 20.1272 19.8495 19.7205L19.7239 19.6096L17.3333 17.2201V23.3334C17.3333 24.0698 16.7364 24.6667 16 24.6667C15.3162 24.6667 14.7527 24.152 14.6756 23.4889L14.6667 23.3334V17.2214L12.2772 19.6189C11.7971 20.1001 11.0408 20.1379 10.5173 19.7318L10.3916 19.621C9.91039 19.1409 9.87258 18.3846 10.2787 17.8611L10.3895 17.7354L15.0459 13.0687C15.0875 13.0261 15.132 12.9862 15.179 12.9494L15.1817 12.9472L15.2852 12.8743Z" fill="#EFF9EB"/>
</svg>
