<svg width="20" height="20" viewBox="0 0 20 20" fill="none" xmlns="http://www.w3.org/2000/svg">
<g id="gift-box">
<path id="Vector" fill-rule="evenodd" clip-rule="evenodd" d="M0.833374 2.91634C0.833374 1.76575 1.76612 0.833008 2.91671 0.833008H17.0834C18.234 0.833008 19.1667 1.76576 19.1667 2.91634V17.083C19.1667 18.2336 18.234 19.1663 17.0834 19.1663H2.91671C1.76612 19.1663 0.833374 18.2336 0.833374 17.083V2.91634ZM2.50004 2.91634C2.50004 2.68622 2.68659 2.49967 2.91671 2.49967H9.16671V6.33608C9.05405 6.11875 8.94241 5.90879 8.83469 5.71344C8.69424 5.45871 8.55607 5.22085 8.42766 5.02035C8.30801 4.83354 8.16671 4.63081 8.0178 4.48191C7.72687 4.19098 7.26716 4.15592 6.93547 4.39936C6.60378 4.64281 6.49941 5.09189 6.68974 5.45666L8.03466 8.03421L5.45702 6.68934C5.09225 6.49903 4.64318 6.60341 4.39974 6.93509C4.1563 7.26678 4.19137 7.72649 4.48229 8.01742C4.6312 8.16633 4.83394 8.30763 5.02076 8.42728C5.22126 8.55569 5.45913 8.69385 5.71386 8.8343C5.90925 8.94203 6.11924 9.05367 6.3366 9.16634H2.50004V2.91634ZM6.33658 10.833H2.50004V17.083C2.50004 17.3131 2.68658 17.4997 2.91671 17.4997H9.16671V13.6634C9.05409 13.8807 8.94249 14.0906 8.83481 14.2859C8.69436 14.5406 8.55619 14.7785 8.42779 14.979C8.30814 15.1658 8.16684 15.3685 8.01793 15.5174C7.04162 16.4937 5.45869 16.4937 4.48238 15.5174C3.50606 14.5411 3.50606 12.9582 4.48238 11.9819C4.63128 11.833 4.83402 11.6917 5.02083 11.5721C5.22132 11.4436 5.45919 11.3055 5.71392 11.165C5.90928 11.0573 6.11925 10.9457 6.33658 10.833ZM10.8334 13.6632V17.4997H17.0834C17.3135 17.4997 17.5 17.3131 17.5 17.083V10.833H13.6636C13.8809 10.9457 14.0909 11.0573 14.2862 11.165C14.5409 11.3055 14.7788 11.4436 14.9793 11.5721C15.1661 11.6917 15.3688 11.833 15.5177 11.9819C15.8087 12.2728 15.8437 12.7326 15.6003 13.0642C15.3568 13.3959 14.9077 13.5003 14.543 13.31L11.9655 11.9651L13.3103 14.5427C13.5006 14.9075 13.3962 15.3565 13.0645 15.6C12.7328 15.8434 12.2731 15.8083 11.9822 15.5174C11.8333 15.3685 11.692 15.1658 11.5724 14.9789C11.4439 14.7784 11.3058 14.5406 11.1653 14.2858C11.0576 14.0905 10.946 13.8805 10.8334 13.6632ZM13.6635 9.16634H17.5V2.91634C17.5 2.68622 17.3135 2.49967 17.0834 2.49967H10.8334V6.3362C10.946 6.11884 11.0577 5.90884 11.1654 5.71346C11.3059 5.45873 11.444 5.22086 11.5724 5.02037C11.6921 4.83355 11.8334 4.63082 11.9823 4.48191C12.9586 3.5056 14.5415 3.5056 15.5178 4.48191C16.4941 5.45822 16.4941 7.04111 15.5178 8.01742C15.3689 8.16633 15.1662 8.30763 14.9794 8.42727C14.7789 8.55568 14.541 8.69384 14.2863 8.83429C14.0909 8.94202 13.8809 9.05367 13.6635 9.16634ZM8.14541 11.7902L8.27035 11.7294L8.20955 11.8544C7.93128 12.4247 7.63713 13.0062 7.37529 13.4811C7.24416 13.719 7.12549 13.9221 7.02429 14.0801C6.9738 14.1589 6.9309 14.2214 6.89579 14.2687C6.87844 14.2921 6.86451 14.3097 6.85395 14.3223C6.84479 14.3332 6.83996 14.3383 6.83933 14.339C6.51389 14.6644 5.98633 14.6643 5.66089 14.3389C5.33545 14.0135 5.33545 13.4859 5.66089 13.1604C5.65978 13.1615 5.6645 13.1568 5.6775 13.1459C5.69014 13.1353 5.70772 13.1214 5.7311 13.104C5.77837 13.0689 5.84089 13.026 5.91972 12.9755C6.07774 12.8743 6.28085 12.7557 6.51868 12.6245C6.99356 12.3627 7.57512 12.0685 8.14541 11.7902ZM11.8548 8.20904L11.7299 8.26983L11.7907 8.1449C12.069 7.57462 12.3631 6.99307 12.6249 6.51819C12.7561 6.28036 12.8747 6.07726 12.9759 5.91924C13.0264 5.84041 13.0693 5.77789 13.1044 5.73062C13.1218 5.70725 13.1357 5.68967 13.1463 5.67703C13.1561 5.66525 13.161 5.66027 13.161 5.66026C13.4864 5.33483 14.0139 5.33498 14.3393 5.66042C14.6647 5.98586 14.6647 6.51347 14.3393 6.83891C14.3393 6.8389 14.3345 6.84359 14.3227 6.85344C14.31 6.864 14.2925 6.87793 14.2691 6.89529C14.2218 6.93039 14.1593 6.97329 14.0805 7.02378C13.9224 7.12499 13.7193 7.24365 13.4815 7.37479C13.0066 7.63663 12.4251 7.93078 11.8548 8.20904Z" fill="#26B246"/>
</g>
</svg>
