<svg width="25" height="24" viewBox="0 0 25 24" fill="none" xmlns="http://www.w3.org/2000/svg">
<path d="M14.4754 2.13777C14.4754 2.09053 14.5907 2.02755 14.7291 2.01181H14.7214C14.8598 1.99606 15.2364 1.99606 15.5515 2.01181C15.8667 2.03543 16.4047 2.11415 16.7429 2.20075C17.0811 2.27947 17.6499 2.47628 18.0112 2.63373C18.3724 2.78331 18.9259 3.08246 19.241 3.27928C19.5561 3.48396 20.1173 3.95631 20.4785 4.32631C20.8398 4.69632 21.2856 5.22377 21.4701 5.50718C21.6545 5.79059 21.9543 6.34166 22.1388 6.72742C22.3156 7.12104 22.5385 7.71935 22.6307 8.06574C22.7537 8.53808 22.7998 8.93958 22.7998 9.64023C22.7998 10.27 22.7614 10.766 22.6691 11.136C22.6 11.443 22.4539 11.939 22.3386 12.2381C22.231 12.5452 21.9697 13.1356 21.7621 13.5607C21.5623 13.978 21.201 14.6314 20.9628 15.0171C20.7245 15.395 20.3171 15.9854 20.0634 16.3318C19.8021 16.6782 19.2487 17.3867 18.8259 17.9063C18.4032 18.4259 17.3732 19.5595 15.0058 22L13.9758 20.8979C13.3993 20.2917 12.5462 19.3627 11.2087 17.867H8.91817C7.05807 17.867 6.5892 17.8433 6.36629 17.7489C6.22025 17.6859 6.02809 17.5127 5.94354 17.3789C5.85899 17.2372 5.78981 17.0403 5.78981 16.9459C5.78981 16.8435 5.84362 16.6389 5.90511 16.4893C5.9666 16.3397 6.09727 16.1665 6.1895 16.1193C6.31249 16.0484 6.90434 16.0012 9.61764 15.9382L9.14108 15.2612C8.88743 14.8833 8.57997 14.4188 8.24946 13.852H5.92048C4.22947 13.852 3.54538 13.8205 3.41472 13.7497C3.31479 13.7024 3.15338 13.5528 3.06883 13.4348C2.96891 13.2931 2.90741 13.1041 2.9151 12.923C2.9151 12.7656 2.97659 12.5452 3.03808 12.435C3.10726 12.3247 3.28405 12.1752 3.43778 12.1043C3.67605 11.9784 3.96045 11.9626 7.48082 11.9626L7.44239 11.7894C7.42701 11.6871 7.37321 11.4352 7.33478 11.2147C7.29635 11.0022 7.24254 10.5456 7.17336 9.60087H5.90511C4.8367 9.60087 4.59842 9.57725 4.40626 9.46703C4.27559 9.38831 4.12186 9.20724 4.06037 9.07341C3.99888 8.93171 3.94508 8.73489 3.94508 8.64042C3.94508 8.53808 4.01425 8.34127 4.09881 8.20744C4.18336 8.06573 4.37552 7.89254 4.52156 7.82956C4.72909 7.74296 5.11341 7.71147 6.17413 7.71147C7.35015 7.71147 7.55768 7.69573 7.55768 7.59339C7.55768 7.53041 7.68835 7.18402 7.84977 6.82976C8.01118 6.46762 8.31864 5.89293 8.53385 5.54655C8.74907 5.20016 8.97967 4.86951 9.04884 4.82228C9.11802 4.76717 9.15645 4.68845 9.13339 4.64121C9.11033 4.59398 8.52617 4.56249 7.61149 4.56249C6.27406 4.56249 6.11264 4.54674 5.88205 4.40504C5.75138 4.31844 5.59765 4.16099 5.55922 4.05078C5.5131 3.94056 5.48236 3.72801 5.48236 3.57843C5.48236 3.39736 5.55153 3.2163 5.67452 3.06672C5.78213 2.94076 5.99734 2.79118 6.15107 2.74395C6.35092 2.68884 7.68835 2.6731 14.1295 2.71246L14.8598 2.97225C15.2594 3.12183 15.7975 3.36587 16.0511 3.52332C16.3048 3.68077 16.7122 3.97993 16.9505 4.18461C17.1964 4.39717 17.55 4.78292 17.7345 5.05845C17.9189 5.32612 18.1803 5.77485 18.3186 6.05826C18.457 6.34166 18.7491 6.85338 18.972 7.19976C19.2026 7.54615 19.4639 8.01063 19.5638 8.22318C19.7176 8.57745 19.7406 8.72702 19.7329 9.64023C19.7329 10.4117 19.7022 10.7502 19.6023 11.0179C19.5254 11.2147 19.3563 11.5375 19.2179 11.7422C19.0796 11.9469 18.8336 12.2067 18.6645 12.3169C18.4724 12.4428 18.2495 12.5137 18.065 12.5137C17.9113 12.5137 17.6884 12.4664 17.5654 12.4035C17.4501 12.3484 17.2425 12.1673 17.1042 12.0098C16.9735 11.8524 16.7737 11.5611 16.6737 11.3564C16.5738 11.1439 16.4355 10.766 16.3663 10.5062C16.2971 10.2464 16.2433 9.8764 16.2433 9.67959C16.2433 9.48278 16.2971 9.11277 16.3663 8.85298C16.4278 8.59319 16.5815 8.17595 16.7122 7.9319C16.8659 7.617 16.9351 7.36509 16.9351 7.10529C16.9351 6.82976 16.8659 6.60933 16.7045 6.31805C16.5738 6.08975 16.2894 5.71187 16.0665 5.49144C15.8436 5.26314 15.4209 4.94824 15.1288 4.79079C14.829 4.63334 14.4063 4.46015 14.1834 4.41291C13.9681 4.36568 13.5684 4.32631 13.2994 4.32631C13.0381 4.32631 12.6153 4.38142 12.3617 4.45227C12.108 4.51525 11.7083 4.6727 11.4777 4.79866C11.2472 4.92462 10.8167 5.27101 10.5323 5.56229C10.2479 5.86144 9.90972 6.25507 9.77905 6.45188C9.64838 6.64869 9.44085 7.01082 9.31787 7.26274C9.19489 7.50679 9.0181 7.98701 8.92586 8.32553C8.79519 8.79787 8.75676 9.12852 8.76445 9.83704C8.76445 10.5771 8.80288 10.8683 8.97198 11.4352C9.07959 11.813 9.29481 12.372 9.44085 12.6711C9.58689 12.9782 9.85591 13.4584 10.025 13.7575C10.2018 14.0488 10.4862 14.4818 10.663 14.718C10.8321 14.9541 11.2318 15.4659 11.5546 15.8595C11.8698 16.2452 12.3694 16.8278 12.6614 17.1584C12.9535 17.4812 13.507 18.0795 13.8913 18.481C14.2756 18.8904 14.683 19.2683 14.7983 19.3312C14.9366 19.4021 15.0904 19.4178 15.221 19.3863C15.344 19.3549 15.6745 19.0793 15.9666 18.7723C16.251 18.4731 16.6199 18.0638 17.0734 17.5127L16.2587 17.1742C15.8052 16.9931 15.1442 16.6625 14.7829 16.442C14.4216 16.2216 13.922 15.8673 13.6684 15.6627C13.4147 15.458 12.9997 15.0644 12.746 14.7888C12.4923 14.5133 12.1388 14.0724 11.9697 13.8126C11.7929 13.5528 11.5239 13.1041 11.0934 12.2775L11.1319 7.98701H12.1311L12.1695 11.8052H12.746L12.8075 10.6085C12.8382 9.94725 12.8613 9.07341 12.8613 7.94765L13.8221 7.98701L13.8605 11.8052H14.3986V11.0809C14.3986 10.6794 14.4216 9.80555 14.5139 7.93978L15.1288 7.98701L15.1518 9.71895C15.1672 10.8211 15.1442 11.6241 15.0827 11.9232C15.0365 12.183 14.9136 12.553 14.806 12.7499C14.683 12.986 14.6292 13.2301 14.6292 13.4977C14.6292 13.7575 14.6907 14.0094 14.806 14.2456C14.9289 14.4818 15.1288 14.6944 15.4055 14.8833C15.6361 15.0407 15.9666 15.2218 16.1434 15.2927C16.3509 15.3793 16.6968 15.4265 17.0658 15.4265C17.3963 15.4265 17.819 15.3793 18.0112 15.3163C18.2033 15.2612 18.48 15.151 18.6261 15.0722C18.7721 14.9935 18.9797 14.8597 19.0873 14.7731C19.1949 14.6944 19.4332 14.4188 19.6099 14.1748C19.7944 13.9307 20.0634 13.5214 20.2018 13.2616C20.3478 13.0018 20.5631 12.5373 20.686 12.2381C20.809 11.939 20.9628 11.4273 21.0396 11.1203C21.1088 10.8054 21.1626 10.3173 21.1626 10.0339C21.1626 9.75044 21.1088 9.26235 21.0396 8.95532C20.9781 8.64042 20.7937 8.09723 20.6322 7.75084C20.4708 7.40445 20.1864 6.90061 20.002 6.63295C19.8175 6.36528 19.4024 5.85357 19.0873 5.49931C18.7721 5.13718 18.2187 4.58611 17.8575 4.26333C17.4962 3.94056 16.912 3.47609 16.5508 3.23204C16.1741 2.97225 15.5977 2.66522 15.1826 2.50777C14.7906 2.3582 14.4754 2.19288 14.4754 2.13777Z" fill="#6B7280"/>
<path d="M2.96122 3.06672C3.04577 2.91714 3.20718 2.7282 3.32248 2.65735C3.43778 2.57863 3.68374 2.52352 3.8759 2.52352C4.08343 2.52352 4.31402 2.57863 4.45238 2.66522C4.57536 2.75182 4.74446 2.93289 4.82901 3.08246C4.93662 3.27928 4.95968 3.43673 4.92894 3.73588C4.8905 4.02716 4.82133 4.18461 4.6676 4.34993C4.5523 4.46802 4.3294 4.60185 4.18336 4.64909C4.03731 4.69632 3.80672 4.71994 3.68374 4.68845C3.55307 4.66483 3.36091 4.57823 3.23793 4.48376C3.12263 4.39717 2.97659 4.22397 2.9151 4.09014C2.85361 3.96418 2.7998 3.73588 2.7998 3.60205C2.80749 3.46034 2.87667 3.2163 2.96122 3.06672Z" fill="#6B7280"/>
</svg>
