<svg width="20" height="20" viewBox="0 0 20 20" fill="none" xmlns="http://www.w3.org/2000/svg">
<g id="knife-fork">
<path id="Vector (Stroke)" fill-rule="evenodd" clip-rule="evenodd" d="M5.83333 0.833008C6.29357 0.833008 6.66667 1.2061 6.66667 1.66634V7.34069C6.69884 7.32907 6.73094 7.31664 6.76282 7.30336C6.98985 7.20876 7.17052 7.08536 7.29198 6.93352C7.403 6.79475 7.5 6.58969 7.5 6.24967V2.08301C7.5 1.62277 7.8731 1.24967 8.33333 1.24967C8.79357 1.24967 9.16667 1.62277 9.16667 2.08301V6.24967C9.16667 6.95132 8.95117 7.52751 8.59343 7.97468C8.24615 8.40878 7.80182 8.676 7.40385 8.84182C7.14437 8.94994 6.88981 9.02119 6.66667 9.06847V18.333C6.66667 18.7932 6.29357 19.1663 5.83333 19.1663C5.3731 19.1663 5 18.7932 5 18.333V9.06847C4.77685 9.02119 4.5223 8.94994 4.26282 8.84182C3.86485 8.676 3.42052 8.40878 3.07323 7.97468C2.7155 7.52751 2.5 6.95132 2.5 6.24967V2.08301C2.5 1.62277 2.8731 1.24967 3.33333 1.24967C3.79357 1.24967 4.16667 1.62277 4.16667 2.08301V6.24967C4.16667 6.58969 4.26367 6.79475 4.37468 6.93352C4.49615 7.08536 4.67682 7.20876 4.90385 7.30336C4.93572 7.31664 4.96783 7.32907 5 7.34069V1.66634C5 1.2061 5.3731 0.833008 5.83333 0.833008ZM15.8333 0.833008C16.2936 0.833008 16.6667 1.2061 16.6667 1.66634V18.333C16.6667 18.7932 16.2936 19.1663 15.8333 19.1663C15.3731 19.1663 15 18.7932 15 18.333V9.58301H12.5C12.0398 9.58301 11.6667 9.20991 11.6667 8.74967V4.99967C11.6667 4.02052 11.9138 3.23075 12.3275 2.61034C12.7376 1.99514 13.2785 1.59541 13.794 1.33765C14.3063 1.08152 14.8084 0.957609 15.1755 0.89643C15.361 0.865511 15.5174 0.849729 15.6307 0.841636C15.6875 0.837579 15.7339 0.835426 15.7681 0.834284C15.7853 0.833713 15.7994 0.833394 15.8103 0.833218L15.8243 0.833047L15.8294 0.833016L15.8315 0.83301L15.8325 0.833008C15.8329 0.833008 15.8333 0.833008 15.8333 1.66634V0.833008ZM15 2.6458C14.8503 2.69164 14.6936 2.75121 14.5393 2.82836C14.2215 2.98727 13.9291 3.21254 13.7142 3.53484C13.5028 3.85193 13.3333 4.31216 13.3333 4.99967V7.91634H15V2.6458Z" fill="#FF6839"/>
</g>
</svg>
