<svg width="20" height="20" viewBox="0 0 20 20" fill="none" xmlns="http://www.w3.org/2000/svg">
<g id="globe">
<g id="Vector">
<path d="M16.333 1.06038C15.9983 0.744442 15.4709 0.759617 15.155 1.09428C14.839 1.42894 14.8542 1.95636 15.1889 2.2723C16.613 3.61679 17.5 5.51977 17.5 7.63126C17.5 11.7007 14.2011 14.9997 10.1316 14.9997C8.02014 14.9997 6.11717 14.1126 4.77267 12.6885C4.45672 12.3538 3.9293 12.3387 3.59464 12.6546C3.25998 12.9705 3.24481 13.498 3.56075 13.8326C4.99974 15.3568 6.9655 16.3815 9.16671 16.6154V17.4997H7.50004C7.03981 17.4997 6.66671 17.8728 6.66671 18.333C6.66671 18.7932 7.03981 19.1663 7.50004 19.1663H12.5C12.9603 19.1663 13.3334 18.7932 13.3334 18.333C13.3334 17.8728 12.9603 17.4997 12.5 17.4997H10.8334V16.6395C15.4954 16.2814 19.1667 12.3851 19.1667 7.63126C19.1667 5.04233 18.0767 2.70661 16.333 1.06038Z" fill="#B28D26"/>
<path fill-rule="evenodd" clip-rule="evenodd" d="M10 0.83301C6.31814 0.83301 3.33338 3.81777 3.33338 7.49968C3.33338 11.1816 6.31814 14.1663 10 14.1663C13.6819 14.1663 16.6667 11.1816 16.6667 7.49968C16.6667 3.81777 13.6819 0.83301 10 0.83301ZM5.00004 7.49968C5.00004 4.73825 7.23861 2.49968 10 2.49968C12.7615 2.49968 15 4.73825 15 7.49968C15 10.2611 12.7615 12.4997 10 12.4997C7.23861 12.4997 5.00004 10.2611 5.00004 7.49968Z" fill="#B28D26"/>
</g>
</g>
</svg>
