<svg width="22" height="22" viewBox="0 0 22 22" fill="none" xmlns="http://www.w3.org/2000/svg">
<g id="mail">
<path id="Combined Shape" d="M20.1667 3.20834C20.303 3.21109 20.4322 3.23599 20.5612 3.29737C20.6944 3.36103 20.8115 3.45694 20.9001 3.57501C20.9582 3.66154 20.9446 3.63557 20.9001 3.57501C21.0188 3.73332 21.0834 3.92717 21.0834 4.12501C21.0831 4.07618 21.0811 4.05499 21.0834 4.12501V17.875C21.0834 18.3813 20.673 18.7917 20.1667 18.7917H1.83341C1.32715 18.7917 0.916748 18.3813 0.916748 17.875V4.12501C0.916748 3.9609 0.961267 3.79795 1.04501 3.65721C1.21567 3.36966 1.51126 3.21484 1.83341 3.20834H20.1667ZM19.2501 5.95834L11.5501 11.7333C11.2567 11.9533 10.8644 11.9753 10.5513 11.7993L10.4501 11.7333L2.75008 5.95834V16.9583H19.2501V5.95834ZM4.58342 5.04168L11.0001 9.85418L17.4167 5.04168H4.58342Z" fill="#FF6839"/>
</g>
</svg>
