<svg width="20" height="20" viewBox="0 0 20 20" fill="none" xmlns="http://www.w3.org/2000/svg">
<g id="view-grid-list">
<path id="Vector (Stroke)" fill-rule="evenodd" clip-rule="evenodd" d="M2.91671 2.49967C2.68659 2.49967 2.50004 2.68622 2.50004 2.91634V17.083C2.50004 17.3131 2.68659 17.4997 2.91671 17.4997H17.0834C17.3135 17.4997 17.5 17.3131 17.5 17.083V2.91634C17.5 2.68622 17.3135 2.49967 17.0834 2.49967H2.91671ZM0.833374 2.91634C0.833374 1.76575 1.76611 0.833008 2.91671 0.833008H17.0834C18.234 0.833008 19.1667 1.76575 19.1667 2.91634V17.083C19.1667 18.2336 18.234 19.1663 17.0834 19.1663H2.91671C1.76611 19.1663 0.833374 18.2336 0.833374 17.083V2.91634ZM4.16671 4.99967C4.16671 4.53944 4.5398 4.16634 5.00004 4.16634H8.33337C8.79361 4.16634 9.16671 4.53944 9.16671 4.99967V8.33301C9.16671 8.79324 8.79361 9.16634 8.33337 9.16634H5.00004C4.5398 9.16634 4.16671 8.79324 4.16671 8.33301V4.99967ZM5.83337 5.83301V7.49967H7.50004V5.83301H5.83337ZM10.8334 4.99967C10.8334 4.53944 11.2065 4.16634 11.6667 4.16634H15C15.4603 4.16634 15.8334 4.53944 15.8334 4.99967C15.8334 5.45991 15.4603 5.83301 15 5.83301H11.6667C11.2065 5.83301 10.8334 5.45991 10.8334 4.99967ZM10.8334 8.33301C10.8334 7.87277 11.2065 7.49967 11.6667 7.49967H15C15.4603 7.49967 15.8334 7.87277 15.8334 8.33301C15.8334 8.79324 15.4603 9.16634 15 9.16634H11.6667C11.2065 9.16634 10.8334 8.79324 10.8334 8.33301ZM4.16671 11.6663C4.16671 11.2061 4.5398 10.833 5.00004 10.833H8.33337C8.79361 10.833 9.16671 11.2061 9.16671 11.6663V14.9997C9.16671 15.4599 8.79361 15.833 8.33337 15.833H5.00004C4.5398 15.833 4.16671 15.4599 4.16671 14.9997V11.6663ZM5.83337 12.4997V14.1663H7.50004V12.4997H5.83337ZM10.8334 11.6663C10.8334 11.2061 11.2065 10.833 11.6667 10.833H15C15.4603 10.833 15.8334 11.2061 15.8334 11.6663C15.8334 12.1266 15.4603 12.4997 15 12.4997H11.6667C11.2065 12.4997 10.8334 12.1266 10.8334 11.6663ZM10.8334 14.9997C10.8334 14.5394 11.2065 14.1663 11.6667 14.1663H15C15.4603 14.1663 15.8334 14.5394 15.8334 14.9997C15.8334 15.4599 15.4603 15.833 15 15.833H11.6667C11.2065 15.833 10.8334 15.4599 10.8334 14.9997Z" fill="#6839FF"/>
</g>
</svg>
