<svg width="20" height="20" viewBox="0 0 20 20" fill="none" xmlns="http://www.w3.org/2000/svg">
<g id="people-unknown">
<g id="Vector">
<path fill-rule="evenodd" clip-rule="evenodd" d="M7.91671 1.66699C5.84564 1.66699 4.16671 3.34593 4.16671 5.41699C4.16671 7.48806 5.84564 9.16699 7.91671 9.16699C9.98778 9.16699 11.6667 7.48806 11.6667 5.41699C11.6667 3.34593 9.98778 1.66699 7.91671 1.66699ZM5.83337 5.41699C5.83337 4.2664 6.76611 3.33366 7.91671 3.33366C9.0673 3.33366 10 4.2664 10 5.41699C10 6.56759 9.0673 7.50033 7.91671 7.50033C6.76611 7.50033 5.83337 6.56759 5.83337 5.41699Z" fill="#FF6839"/>
<path fill-rule="evenodd" clip-rule="evenodd" d="M12.5 9.16699C12.5 8.70675 12.8731 8.33366 13.3334 8.33366H13.75V7.50033H13.3334C12.8731 7.50033 12.5 7.12723 12.5 6.66699C12.5 6.20676 12.8731 5.83366 13.3334 5.83366H13.75V5.41699C13.75 4.95676 14.1231 4.58366 14.5834 4.58366C15.0436 4.58366 15.4167 4.95676 15.4167 5.41699V5.83366H16.25V5.41699C16.25 4.95676 16.6231 4.58366 17.0834 4.58366C17.5436 4.58366 17.9167 4.95676 17.9167 5.41699V5.83366H18.3334C18.7936 5.83366 19.1667 6.20676 19.1667 6.66699C19.1667 7.12723 18.7936 7.50033 18.3334 7.50033H17.9167V8.33366H18.3334C18.7936 8.33366 19.1667 8.70675 19.1667 9.16699C19.1667 9.62723 18.7936 10.0003 18.3334 10.0003H17.9167V10.417C17.9167 10.8772 17.5436 11.2503 17.0834 11.2503C16.6231 11.2503 16.25 10.8772 16.25 10.417V10.0003H15.4167V10.417C15.4167 10.8772 15.0436 11.2503 14.5834 11.2503C14.1231 11.2503 13.75 10.8772 13.75 10.417V10.0003H13.3334C12.8731 10.0003 12.5 9.62723 12.5 9.16699ZM15.4167 7.50033H16.25V8.33366H15.4167V7.50033Z" fill="#FF6839"/>
<path fill-rule="evenodd" clip-rule="evenodd" d="M6.96437 10.8337H8.86904C9.77217 10.8337 10.5007 10.8336 11.0905 10.8818C11.6979 10.9315 12.2314 11.0363 12.725 11.2878C13.509 11.6872 14.1464 12.3247 14.5459 13.1087C14.7974 13.6023 14.9022 14.1358 14.9519 14.7432C15.0001 15.333 15 16.0614 15 16.9645V17.5003C15 17.9606 14.6269 18.3337 14.1667 18.3337H1.66671C1.20647 18.3337 0.833374 17.9606 0.833374 17.5003V16.9647C0.833366 16.0615 0.833359 15.333 0.881556 14.7431C0.931181 14.1358 1.03603 13.6023 1.28751 13.1087C1.68698 12.3247 2.32439 11.6873 3.10841 11.2878C3.60199 11.0363 4.13549 10.9315 4.74287 10.8818C5.33275 10.8336 6.06124 10.8337 6.96437 10.8337ZM2.77253 13.8654C3.01221 13.395 3.39466 13.0125 3.86505 12.7728C4.08452 12.661 4.37429 12.5842 4.87858 12.543C5.39261 12.501 6.05287 12.5003 7.00004 12.5003H8.83337C9.78054 12.5003 10.4408 12.501 10.9548 12.543C11.4591 12.5842 11.7489 12.661 11.9683 12.7728C12.4387 13.0125 12.8212 13.395 13.0609 13.8654C13.1727 14.0848 13.2495 14.3746 13.2907 14.8789C13.3276 15.3303 13.3326 15.8946 13.3333 16.667H2.50014C2.50081 15.8946 2.5058 15.3303 2.54269 14.8789C2.58389 14.3746 2.6607 14.0848 2.77253 13.8654Z" fill="#FF6839"/>
</g>
</g>
</svg>
