<svg width="20" height="20" viewBox="0 0 20 20" fill="none" xmlns="http://www.w3.org/2000/svg">
<g id="shield-add">
<path id="Vector (Stroke)" fill-rule="evenodd" clip-rule="evenodd" d="M9.7701 0.450363C9.92263 0.405848 10.0847 0.405869 10.2372 0.450423L17.7336 2.64027C18.089 2.74409 18.3333 3.06994 18.3333 3.44018V7.93103C18.3333 13.01 15.083 17.519 10.2645 19.1245C10.0935 19.1814 9.90867 19.1814 9.7377 19.1245C4.91793 17.519 1.66663 13.0091 1.66663 7.92895V3.44018C1.66663 3.06986 1.91101 2.74396 2.2665 2.64021L9.7701 0.450363ZM3.33329 4.06507V7.92895C3.33329 12.1984 6.00737 15.9988 10.001 17.4515C13.9935 15.9989 16.6666 12.1993 16.6666 7.93103V4.0649L10.0034 2.11845L3.33329 4.06507ZM9.97902 5.39605C10.4393 5.39605 10.8124 5.76915 10.8124 6.22939V8.72939H13.3124C13.7726 8.72939 14.1457 9.10248 14.1457 9.56272C14.1457 10.023 13.7726 10.3961 13.3124 10.3961H10.8124V12.8961C10.8124 13.3563 10.4393 13.7294 9.97902 13.7294C9.51878 13.7294 9.14569 13.3563 9.14569 12.8961V10.3961H6.64569C6.18545 10.3961 5.81235 10.023 5.81235 9.56272C5.81235 9.10248 6.18545 8.72939 6.64569 8.72939H9.14569V6.22939C9.14569 5.76915 9.51878 5.39605 9.97902 5.39605Z" fill="#374151"/>
</g>
</svg>
