<svg width="29" height="28" viewBox="0 0 29 28" fill="none" xmlns="http://www.w3.org/2000/svg">
<path d="M14.667 7.875V9.625" stroke="#0C111C" stroke-width="2" stroke-linecap="round" stroke-linejoin="round"/>
<path d="M14.667 18.375V20.125" stroke="#0C111C" stroke-width="2" stroke-linecap="round" stroke-linejoin="round"/>
<path d="M14.667 24.5C20.466 24.5 25.167 19.799 25.167 14C25.167 8.20101 20.466 3.5 14.667 3.5C8.868 3.5 4.16699 8.20101 4.16699 14C4.16699 19.799 8.868 24.5 14.667 24.5Z" stroke="#0C111C" stroke-width="2" stroke-linecap="round" stroke-linejoin="round"/>
<path d="M12.042 18.375H15.9795C16.5597 18.375 17.1161 18.1445 17.5263 17.7343C17.9365 17.3241 18.167 16.7677 18.167 16.1875C18.167 15.6073 17.9365 15.0509 17.5263 14.6407C17.1161 14.2305 16.5597 14 15.9795 14H13.3545C12.7743 14 12.2179 13.7695 11.8077 13.3593C11.3975 12.9491 11.167 12.3927 11.167 11.8125C11.167 11.2323 11.3975 10.6759 11.8077 10.2657C12.2179 9.85547 12.7743 9.625 13.3545 9.625H17.292" stroke="#0C111C" stroke-width="2" stroke-linecap="round" stroke-linejoin="round"/>
</svg>
