<svg width="18" height="18" viewBox="0 0 18 18" fill="none" xmlns="http://www.w3.org/2000/svg">
<path d="M10.25 9.83366C10.7102 9.83366 11.0833 10.2068 11.0833 10.667C11.0833 11.0944 10.7616 11.4466 10.3471 11.4947L10.25 11.5003L6.39381 11.501L5.59826 11.5085L5.12525 11.521L4.86053 11.5334L4.63118 11.5495L4.43278 11.5698C4.40205 11.5735 4.37243 11.5774 4.34382 11.5815L4.18362 11.6087C4.10887 11.6236 4.04161 11.6403 3.97935 11.6592L3.86078 11.7L3.75116 11.7469C3.73339 11.7553 3.71581 11.7639 3.69833 11.7728C3.22793 12.0125 2.84547 12.3949 2.60578 12.8654L2.55564 12.9722C2.54782 12.9904 2.54027 13.0089 2.53298 13.0278L2.49221 13.1464C2.4796 13.1879 2.46795 13.2316 2.45718 13.2783L2.42749 13.428C2.42297 13.4547 2.41864 13.4823 2.41452 13.5109L2.39207 13.6954L2.37395 13.9087L2.35974 14.1552L2.34905 14.4393L2.33658 15.1377L2.33329 15.667H10.25C10.6773 15.667 11.0295 15.9887 11.0777 16.4031L11.0833 16.5003C11.0833 16.9277 10.7616 17.2799 10.3471 17.3281L10.25 17.3337H1.49996C1.0726 17.3337 0.72037 17.012 0.672232 16.5975L0.666626 16.5003L0.66742 15.5094L0.675596 14.6741L0.689881 14.1596L0.704425 13.8621L0.723693 13.5963L0.748294 13.3578C0.762028 13.2448 0.777989 13.1405 0.796518 13.0426L0.837103 12.8546C0.844472 12.8245 0.852151 12.7949 0.860153 12.7657L0.91215 12.5956C0.921496 12.5679 0.931191 12.5405 0.941247 12.5133L1.00602 12.3516L1.08007 12.1904L1.12076 12.1087C1.52024 11.3247 2.15766 10.6873 2.94169 10.2878L3.11707 10.203C3.49356 10.0315 3.85964 9.93841 4.45452 9.88857L4.7462 9.86851L5.07559 9.85383L5.65184 9.84024L6.34234 9.83445L10.25 9.83366ZM14 10.2503C14.4273 10.2503 14.7795 10.572 14.8277 10.9865L14.8333 11.0837V12.7503H16.5C16.9602 12.7503 17.3333 13.1234 17.3333 13.5837C17.3333 14.011 17.0116 14.3632 16.5971 14.4114L16.5 14.417H14.8333V16.0837C14.8333 16.5439 14.4602 16.917 14 16.917C13.5726 16.917 13.2204 16.5953 13.1722 16.1808L13.1666 16.0837V14.417H11.5C11.0397 14.417 10.6666 14.0439 10.6666 13.5837C10.6666 13.1563 10.9883 12.8041 11.4028 12.7559L11.5 12.7503H13.1666V11.0837C13.1666 10.6234 13.5397 10.2503 14 10.2503ZM6.91663 0.666992C8.9877 0.666992 10.6666 2.34592 10.6666 4.41699C10.6666 6.48806 8.9877 8.16699 6.91663 8.16699C4.84556 8.16699 3.16663 6.48806 3.16663 4.41699C3.16663 2.34592 4.84556 0.666992 6.91663 0.666992ZM6.91663 2.33366C5.76603 2.33366 4.83329 3.2664 4.83329 4.41699C4.83329 5.56759 5.76603 6.50033 6.91663 6.50033C8.06722 6.50033 8.99996 5.56759 8.99996 4.41699C8.99996 3.2664 8.06722 2.33366 6.91663 2.33366Z" fill="#6839FF"/>
</svg>
