<svg width="20" height="20" viewBox="0 0 20 20" fill="none" xmlns="http://www.w3.org/2000/svg">
<g id="bookshelf">
<path id="Vector" d="M18.3333 10.8337C19.2126 10.8337 19.4925 12.0191 18.706 12.4123L18.6479 12.4444C18.5198 12.521 18.3232 12.6722 18.1228 12.8977C17.7313 13.3381 17.4999 13.8876 17.4999 14.5837C17.4999 15.2797 17.7313 15.8292 18.1228 16.2696C18.3566 16.5327 18.5852 16.6946 18.706 16.755L18.792 16.8038C19.4701 17.2377 19.1788 18.3337 18.3333 18.3337H3.33328C3.20391 18.3337 3.07631 18.3035 2.9606 18.2457C2.66465 18.0977 2.26826 17.8169 1.8771 17.3769C1.2269 16.6454 0.833279 15.7105 0.833279 14.5837C0.833279 13.4568 1.2269 12.5219 1.8771 11.7904C2.26826 11.3504 2.66465 11.0696 2.9606 10.9216C3.07631 10.8638 3.20391 10.8337 3.33328 10.8337H18.3333ZM16.3674 12.5003H3.56161L3.49938 12.5459C3.41609 12.609 3.32107 12.6908 3.22239 12.7912L3.12279 12.8977C2.73132 13.3381 2.49995 13.8876 2.49995 14.5837C2.49995 15.2797 2.73132 15.8292 3.12279 16.2696C3.25641 16.4199 3.38833 16.5372 3.49938 16.6214L3.56328 16.667H16.3683L16.3175 16.578C16.0392 16.0585 15.8696 15.4672 15.8385 14.8065L15.8333 14.5837C15.8333 13.8324 16.0082 13.1665 16.3175 12.5893L16.3674 12.5003ZM16.6666 1.66699C16.796 1.66699 16.9236 1.69711 17.0393 1.75497C17.3352 1.90294 17.7316 2.18372 18.1228 2.62377C18.773 3.35525 19.1666 4.29011 19.1666 5.41699C19.1666 6.54388 18.773 7.47874 18.1228 8.21021C17.7316 8.65026 17.3352 8.93104 17.0393 9.07902C16.9236 9.13687 16.796 9.16699 16.6666 9.16699H1.66661C0.787259 9.16699 0.507417 7.98156 1.29393 7.5883L1.35198 7.55622C1.48008 7.47961 1.67667 7.32843 1.8771 7.10294C2.26857 6.66254 2.49995 6.11302 2.49995 5.41699C2.49995 4.72096 2.26857 4.17145 1.8771 3.73105C1.64326 3.46797 1.41465 3.30604 1.29393 3.24568L1.20789 3.1969C0.52983 2.76299 0.82108 1.66699 1.66661 1.66699H16.6666ZM16.4374 3.33366H3.63161L3.68239 3.42262C3.96074 3.9421 4.13028 4.53344 4.1614 5.19418L4.16661 5.41699C4.16661 6.16825 3.99167 6.83416 3.68239 7.41136L3.63078 7.50033H16.4358L16.5005 7.45476C16.5838 7.39162 16.6788 7.30985 16.7775 7.20949L16.8771 7.10294C17.2686 6.66254 17.4999 6.11302 17.4999 5.41699C17.4999 4.72096 17.2686 4.17145 16.8771 3.73105C16.7435 3.58072 16.6116 3.46342 16.5005 3.37922L16.4374 3.33366Z" fill="#374151"/>
</g>
</svg>
