<svg width="28" height="28" viewBox="0 0 28 28" fill="none" xmlns="http://www.w3.org/2000/svg">
<path d="M7.875 26.25C8.8415 26.25 9.625 25.4665 9.625 24.5C9.625 23.5335 8.8415 22.75 7.875 22.75C6.9085 22.75 6.125 23.5335 6.125 24.5C6.125 25.4665 6.9085 26.25 7.875 26.25Z" fill="#0C111C"/>
<path d="M23.625 26.25C24.5915 26.25 25.375 25.4665 25.375 24.5C25.375 23.5335 24.5915 22.75 23.625 22.75C22.6585 22.75 21.875 23.5335 21.875 24.5C21.875 25.4665 22.6585 26.25 23.625 26.25Z" fill="#0C111C"/>
<path d="M2.625 5.25L4.99406 7.61906C5.15785 7.78303 5.24989 8.00528 5.25 8.23703V20.125" stroke="#0C111C" stroke-width="2" stroke-linecap="round" stroke-linejoin="round"/>
<path d="M3.5 20.125H26.25" stroke="#0C111C" stroke-width="2" stroke-linecap="round" stroke-linejoin="round"/>
</svg>
