<svg width="24" height="24" viewBox="0 0 24 24" fill="none" xmlns="http://www.w3.org/2000/svg">
<g id="wallet">
<path id="Vector (Stroke)" fill-rule="evenodd" clip-rule="evenodd" d="M15.3924 1.1339C15.8706 0.857755 16.4822 1.02163 16.7584 1.49992L18.7791 4.99992H21C22.1046 4.99992 23 5.89534 23 6.99992V20.9999C23 22.1045 22.1046 22.9999 21 22.9999H3C1.89544 22.9999 1 22.1045 1 20.9999V6.99992C1 5.89533 1.89544 4.99992 3 4.99992H8.69617L15.3924 1.1339ZM16.4654 4.99249L15.5263 3.36595L12.7161 4.98842L16.4654 4.99249ZM21 17.4999H17.625C15.6695 17.4999 14 15.9783 14 13.9999C14 12.0215 15.6695 10.4999 17.625 10.4999H21V6.99992H3V20.9999H21V17.4999ZM21 12.4999H17.625C16.681 12.4999 16 13.2169 16 13.9999C16 14.7829 16.681 15.4999 17.625 15.4999H21V12.4999Z" fill="#38D0FF"/>
<g id="Vector (Stroke)_2">
<path d="M17.625 17.5H21V21H3V7H21V10.5H17.625C15.6695 10.5 14 12.0216 14 14C14 15.9784 15.6695 17.5 17.625 17.5Z" fill="#E5F9FF"/>
<path d="M17.625 12.5H21V15.5H17.625C16.681 15.5 16 14.783 16 14C16 13.217 16.681 12.5 17.625 12.5Z" fill="#E5F9FF"/>
</g>
</g>
</svg>
